Coordinates
version=1
nRows=31
nColumns=38
inDegrees=no

Units are S.I. units (second, meters, Newtons, ...)
If the header above contains a line with 'inDegrees', this indicates whether rotational values are in degrees (yes) or radians (no).

endheader
time	pelvis_tilt	pelvis_list	pelvis_rotation	pelvis_tx	pelvis_ty	pelvis_tz	hip_flexion_r	hip_adduction_r	hip_rotation_r	knee_angle_r	ankle_angle_r	subtalar_angle_r	mtp_angle_r	hip_flexion_l	hip_adduction_l	hip_rotation_l	knee_angle_l	ankle_angle_l	subtalar_angle_l	mtp_angle_l	lumbar_extension	lumbar_bending	lumbar_rotation	arm_flex_r	arm_add_r	arm_rot_r	elbow_flex_r	pro_sup_r	wrist_flex_r	wrist_dev_r	arm_flex_l	arm_add_l	arm_rot_l	elbow_flex_l	pro_sup_l	wrist_flex_l	wrist_dev_l
1.75	-1.86744	1.49261	0.261139	0.813251	-0.172774	1.05265	0.309131	0.0258368	-0.189637	0.150755	-0.134959	0	0	-0.186096	-0.101251	-0.399898	0.165184	-0.133425	0	0	-0.196826	0.10124	-0.0858414	-0.0662639	-0.190508	0.0495828	0.537305	1.52253	0	0	-0.00137285	-0.354905	0.187484	0.999217	1.28904	0	0
1.76	-1.97974	1.49687	0.375856	0.81251	-0.185558	1.04925	0.311991	0.0216578	-0.180092	0.086226	-0.138794	0	0	-0.195066	-0.0940543	-0.399398	0.159718	-0.131343	0	0	-0.189065	0.0947445	-0.0894367	-0.0709523	-0.192252	0.0596364	0.530915	1.52269	0	0	-0.00137913	-0.360632	0.182952	1.01799	1.29034	0	0
1.77	-2.10869	1.50134	0.507653	0.811753	-0.198459	1.04559	0.315094	0.0153304	-0.169995	0.0263819	-0.150325	0	0	-0.204123	-0.0857941	-0.398427	0.155199	-0.127352	0	0	-0.181633	0.0868119	-0.0928466	-0.0752455	-0.186378	0.0435438	0.520526	1.55879	0	0	-0.000748502	-0.36754	0.181773	1.03652	1.28701	0	0
1.78	-2.22942	1.50554	0.631472	0.811104	-0.211458	1.04185	0.320734	0.00788234	-0.16855	0	-0.151463	0	0	-0.214438	-0.0780977	-0.40016	0.15274	-0.124973	0	0	-0.176474	0.0795924	-0.0948247	-0.0805438	-0.184752	0.039719	0.513718	1.5708	0	0	0.0017083	-0.37244	0.180876	1.05266	1.28521	0	0
1.79	-2.39727	1.50888	0.802664	0.810319	-0.224554	1.03778	0.331215	-0.00184804	-0.169735	0	-0.132037	0	0	-0.221455	-0.0701215	-0.403898	0.156077	-0.105132	0	0	-0.168875	0.0692	-0.0998334	-0.0742544	-0.210602	0.166938	0.499067	1.43944	0	0	0.00379999	-0.389169	0.197893	1.07236	1.25718	0	0
1.8	-2.50103	1.51091	0.910034	0.809449	-0.237786	1.03393	0.337838	-0.00732132	-0.175232	0	-0.124384	0	0	-0.231796	-0.0665694	-0.408244	0.159975	-0.0999568	0	0	-0.166081	0.0639214	-0.10043	-0.0761813	-0.211416	0.181854	0.487728	1.42943	0	0	0.00839485	-0.395486	0.202495	1.08635	1.25335	0	0
1.81	-2.58165	1.51218	0.994558	0.808406	-0.251061	1.03014	0.343416	-0.0108036	-0.182739	0	-0.117639	0	0	-0.241807	-0.0655877	-0.411434	0.166469	-0.0954953	0	0	-0.164689	0.0605193	-0.100345	-0.0776023	-0.211843	0.196185	0.476214	1.41781	0	0	0.0141193	-0.401476	0.208409	1.09833	1.2502	0	0
1.82	-2.63498	1.51305	1.05237	0.807306	-0.264424	1.02645	0.347209	-0.0126512	-0.187847	0	-0.112246	0	0	-0.251783	-0.0667804	-0.412023	0.17414	-0.0922071	0	0	-0.164497	0.0594151	-0.0999885	-0.0797007	-0.212673	0.209125	0.466888	1.40436	0	0	0.0204873	-0.406165	0.214581	1.1081	1.24699	0	0
1.83	-2.65476	1.51473	1.07858	0.806218	-0.277907	1.02306	0.348347	-0.0134848	-0.191273	0	-0.1037	0	0	-0.260677	-0.0719088	-0.416079	0.189468	-0.0862001	0	0	-0.167366	0.0595905	-0.100318	-0.0805913	-0.176284	0.0640759	0.437842	1.5708	0	0	0.0261612	-0.40663	0.212634	1.11702	1.2601	0	0
1.84	-2.64413	1.51622	1.07449	0.805188	-0.291543	1.01987	0.348566	-0.0127579	-0.189014	0	-0.103035	0	0	-0.270966	-0.0777327	-0.413835	0.201075	-0.0872686	0	0	-0.170483	0.0626531	-0.101105	-0.08151	-0.175755	0.0671663	0.427398	1.5708	0	0	0.0323833	-0.407679	0.215266	1.12322	1.26371	0	0
1.85	-2.57546	1.5187	1.01239	0.804055	-0.305383	1.01717	0.346199	-0.00906872	-0.185849	0	-0.104474	0	0	-0.282359	-0.0870507	-0.414931	0.217094	-0.0854353	0	0	-0.1763	0.0679637	-0.10154	-0.0796476	-0.174375	0.0693173	0.412771	1.5708	0	0	0.0393539	-0.40955	0.220928	1.12775	1.26661	0	0
1.86	-2.44159	1.52123	0.884834	0.802785	-0.319526	1.01491	0.341461	-0.00178434	-0.183277	0	-0.114074	0	0	-0.29557	-0.0990095	-0.417116	0.234394	-0.084286	0	0	-0.183974	0.0754813	-0.101595	-0.076706	-0.173146	0.072984	0.396824	1.5708	0	0	0.0456858	-0.410864	0.226641	1.13065	1.27048	0	0
1.87	-2.2563	1.52229	0.705616	0.801403	-0.334024	1.01302	0.334908	0.00854909	-0.181442	0	-0.134112	0	0	-0.310233	-0.112798	-0.419549	0.251	-0.0848979	0	0	-0.191956	0.084871	-0.101248	-0.0739708	-0.172438	0.0781501	0.381129	1.5708	0	0	0.0507937	-0.411198	0.232257	1.13144	1.27527	0	0
1.88	-2.03848	1.51584	0.490251	0.799098	-0.349092	1.01114	0.329172	0.0280416	-0.176929	0	-0.167571	0	0	-0.338398	-0.137992	-0.404132	0.225218	-0.0952285	0	0	-0.196723	0.099179	-0.0969134	-0.0727949	-0.172224	0.085528	0.366042	1.5708	0	0	0.0526925	-0.410704	0.236699	1.13085	1.28145	0	0
1.89	-1.77233	1.51055	0.227553	0.797446	-0.364021	1.01078	0.315833	0.044641	-0.17777	0	-0.276866	0	0	-0.361653	-0.153344	-0.399662	0.227729	-0.127672	0	0	-0.210326	0.113309	-0.0957394	-0.0635858	-0.19272	0.218128	0.352091	1.47769	0	0	0.0542928	-0.406641	0.234867	1.12705	1.29593	0	0
1.9	-1.67475	1.50126	0.130511	0.79554	-0.379085	1.01031	0.312701	0.0605672	-0.17141	0	-0.316888	0	0	-0.371058	-0.169656	-0.404084	0.246029	-0.160678	0	0	-0.214878	0.127306	-0.0895196	-0.0609064	-0.177766	0.134473	0.330304	1.5708	0	0	0.054188	-0.394707	0.225623	1.11725	1.32037	0	0
1.91	-1.6239	1.49088	0.0788445	0.793556	-0.394084	1.01024	0.313147	0.0760845	-0.166595	0.0138646	-0.323677	0	0	-0.376266	-0.185117	-0.402103	0.26837	-0.163056	0	0	-0.217054	0.141503	-0.0826337	-0.0607837	-0.179415	0.136916	0.322656	1.5708	0	0	0.0565827	-0.390336	0.233571	1.10573	1.31761	0	0
1.92	-1.62393	1.47934	0.0763421	0.791518	-0.409182	1.0104	0.319713	0.0912847	-0.165345	0.0521122	-0.319513	0	0	-0.373256	-0.203007	-0.406075	0.301381	-0.188164	0	0	-0.214572	0.156301	-0.0753936	-0.060107	-0.182613	0.147886	0.314752	1.5708	0	0	0.0541734	-0.3791	0.229265	1.09116	1.32925	0	0
1.93	-1.6644	1.46805	0.112964	0.789335	-0.424343	1.01067	0.329541	0.10574	-0.155343	0.0925574	-0.286346	0	0	-0.36219	-0.220866	-0.409366	0.340875	-0.231015	0	0	-0.206858	0.170016	-0.0691989	-0.0594608	-0.187539	0.171402	0.308484	1.5708	0	0	0.0466456	-0.363523	0.214853	1.07495	1.34996	0	0
1.94	-1.71785	1.45775	0.162764	0.787029	-0.439382	1.01105	0.339355	0.119164	-0.136525	0.129994	-0.258303	0	0	-0.343937	-0.238597	-0.408806	0.387392	-0.267872	0	0	-0.196248	0.181611	-0.0647257	-0.0598329	-0.191115	0.186367	0.306065	1.5708	0	0	0.0385975	-0.352543	0.207733	1.05886	1.35713	0	0
1.95	-1.77805	1.44893	0.220966	0.784649	-0.454235	1.0114	0.34968	0.130703	-0.117176	0.165448	-0.229448	0	0	-0.318754	-0.255949	-0.402589	0.439589	-0.307647	0	0	-0.183372	0.190363	-0.0638755	-0.0599706	-0.193929	0.201914	0.306206	1.5708	0	0	0.0283735	-0.343573	0.200416	1.04377	1.36017	0	0
1.96	-1.82617	1.44311	0.271057	0.782809	-0.468895	1.01175	0.358092	0.137471	-0.109097	0.199153	-0.20229	0	0	-0.280015	-0.272897	-0.417647	0.536836	-0.337181	0	0	-0.171056	0.195741	-0.0684864	-0.0604911	-0.197613	0.222482	0.311304	1.5708	0	0	0.0170254	-0.336423	0.193666	1.0306	1.3582	0	0
1.97	-1.84502	1.43737	0.295647	0.780396	-0.483272	1.01248	0.360183	0.145412	-0.110411	0.22503	-0.182496	0	0	-0.259289	-0.288718	-0.367767	0.553855	-0.395827	0	0	-0.162257	0.199995	-0.0764716	-0.0585766	-0.201228	0.26092	0.317559	1.55826	0	0	0.00628817	-0.333308	0.189301	1.01891	1.35078	0	0
1.98	-1.82352	1.4365	0.282008	0.779495	-0.497909	1.01327	0.351833	0.146682	-0.124519	0.244671	-0.165545	0	0	-0.213768	-0.314279	-0.45122	0.693682	-0.410817	0	0	-0.160218	0.202463	-0.0855391	-0.0624036	-0.200993	0.239892	0.333713	1.5708	0	0	-0.00429927	-0.32791	0.184776	1.00961	1.34333	0	0
1.99	-1.86412	1.42957	0.337703	0.77734	-0.511233	1.01374	0.35137	0.151814	-0.134734	0.254711	-0.14216	0	0	-0.188882	-0.318758	-0.310718	0.672062	-0.48528	0	0	-0.147929	0.206501	-0.100279	-0.0617079	-0.195544	0.223741	0.343387	1.5708	0	0	-0.0108577	-0.327723	0.187184	0.996415	1.33027	0	0
2	-1.85855	1.42547	0.346424	0.776284	-0.524739	1.01447	0.339888	0.154515	-0.148866	0.258587	-0.125116	0	0	-0.150065	-0.332426	-0.280623	0.733243	-0.534065	0	0	-0.143453	0.210851	-0.11266	-0.0629796	-0.194818	0.211267	0.360687	1.5708	0	0	-0.0152925	-0.326735	0.194256	0.984006	1.31558	0	0
2.01	-1.79601	1.42361	0.293609	0.775936	-0.538848	1.01553	0.315968	0.157763	-0.165902	0.258556	-0.111245	0	0	-0.108138	-0.362471	-0.37712	0.864225	-0.546033	0	0	-0.148704	0.216518	-0.117466	-0.0707447	-0.199427	0.195443	0.391625	1.5708	0	0	-0.0181024	-0.323657	0.204597	0.972625	1.30269	0	0
2.02	-1.78035	1.41924	0.290449	0.775015	-0.551937	1.01663	0.30031	0.161782	-0.18056	0.256483	-0.0990865	0	0	-0.0726296	-0.372559	-0.343865	0.913329	-0.566758	0	0	-0.147108	0.22206	-0.122047	-0.0777233	-0.199709	0.170426	0.420068	1.5708	0	0	-0.0144078	-0.32301	0.224549	0.95477	1.28798	0	0
2.03	-1.75025	1.41663	0.271663	0.774142	-0.564752	1.01828	0.281397	0.165052	-0.197379	0.252802	-0.0880348	0	0	-0.0414193	-0.377674	-0.307968	0.957679	-0.564655	0	0	-0.149418	0.226704	-0.121194	-0.0861153	-0.194618	0.120107	0.449052	1.5708	0	0	0.00182817	-0.336958	0.287958	0.934226	1.23489	0	0
2.04	-1.71618	1.41608	0.245492	0.773126	-0.577433	1.02044	0.26008	0.1677	-0.211765	0.246112	-0.0857919	0	0	-0.0147579	-0.37793	-0.276025	0.99749	-0.536892	0	0	-0.154266	0.228481	-0.118768	-0.0869763	-0.193719	0.101704	0.469573	1.5708	0	0	0.0114891	-0.336838	0.3171	0.912461	1.22195	0	0
2.05	-1.67921	1.41728	0.212509	0.771861	-0.590065	1.02293	0.237344	0.169988	-0.22351	0.238358	-0.0851184	0	0	0.00739576	-0.374749	-0.250827	1.03358	-0.490886	0	0	-0.160793	0.22763	-0.112707	-0.0851546	-0.206947	0.142676	0.493357	1.49726	0	0	0.0218397	-0.338023	0.350236	0.890649	1.20886	0	0
